<svg width="63" height="58" viewBox="0 0 63 58" fill="none" xmlns="http://www.w3.org/2000/svg">
<path d="M62.3435 5.40844C43.6903 -1.2227 23.4152 -1.7704 4.43115 3.84403C3.67655 4.02461 2.96608 4.35539 2.34215 4.81662C1.71822 5.27786 1.19363 5.86009 0.7997 6.52855C0.405768 7.19701 0.150574 7.938 0.0493537 8.70727C-0.0518663 9.47654 0.00296344 10.2583 0.210569 11.0059C1.2496 15.1757 2.76518 19.9666 4.58544 24.3102C4.61669 24.4118 4.66552 24.363 4.66552 24.2614C4.40185 22.2244 5.96821 19.6522 9.04039 18.7166C23.8045 14.0179 39.6936 14.2283 54.3281 19.3162C54.8679 19.5009 55.4392 19.5755 56.0083 19.5359C56.5775 19.4962 57.1329 19.343 57.6418 19.0852C58.1508 18.8274 58.6029 18.4704 58.9717 18.0351C59.3405 17.5998 59.6183 17.0951 59.7889 16.5507C61.6092 10.6915 62.3435 6.71309 62.5252 5.71702C62.5564 5.53148 62.3924 5.46117 62.3435 5.41039V5.40844ZM17.339 18.2987C15.1027 18.7655 12.011 19.4998 9.69076 20.2693C5.05223 21.8689 5.26706 27.5133 7.73769 29.314C7.91933 28.2671 9.04039 26.8434 10.2904 26.3629C14.9211 24.5426 19.8936 23.4548 24.9208 23.0056C22.3662 21.9685 19.8741 20.4822 17.3722 18.2967L17.339 18.2987ZM54.2656 29.5991C47.6016 26.468 40.3774 24.7045 33.0202 24.413C25.6629 24.1215 18.3219 25.3079 11.4309 27.9019C9.22203 28.7359 7.83925 31.4233 9.22203 33.974C11.6377 38.3414 14.3791 42.5204 17.423 46.4756C16.9855 44.96 17.7589 42.1535 20.7276 41.2355C28.9383 38.7122 37.5532 39.7824 43.2796 42.1007C44.8968 42.7511 47.1858 42.3566 48.4689 40.4348C50.6572 37.0639 52.6475 33.5685 54.4297 29.9663C54.5098 29.8042 54.4297 29.6831 54.2656 29.5991ZM40.9613 49.8329C38.5595 48.6201 36.3629 47.0377 34.4518 45.1436C33.567 44.2589 32.2643 42.9874 30.8913 41.4718C27.7566 41.4718 24.7138 41.7863 21.46 42.8253C18.4386 43.7706 18.1554 47.2607 19.4776 49.081C21.7139 51.868 23.2822 53.3719 25.784 55.9578C27.1099 57.2582 28.8904 57.9908 30.7476 57.9999C32.6048 58.009 34.3924 57.294 35.731 56.0066C37.6841 54.0535 38.8852 52.7508 41.0922 50.2489C41.223 50.1161 41.1723 49.8837 40.9594 49.8329H40.9613Z" fill="black"/>
</svg>
