<svg width="376" height="59" viewBox="0 0 376 59" fill="none" xmlns="http://www.w3.org/2000/svg">
<path d="M40.0182 0.960533V15.0469H17.7681V22.8905H33.7753V36.2565H17.7681V57.6262H5.96317e-08V0.960533H40.0182ZM84.7741 49.0624H65.8855L63.0843 57.6262H44.4358L65.1652 0.960533H85.6545L106.304 57.6262H87.5754L84.7741 49.0624ZM80.4521 35.6963L75.3298 19.9291L70.2075 35.6963H80.4521ZM134.912 58.1865C128.135 58.1865 122.533 56.6125 118.104 53.4644C113.729 50.2629 111.354 45.5941 110.981 39.458H129.87C130.136 42.7128 131.577 44.3402 134.192 44.3402C135.152 44.3402 135.952 44.1268 136.593 43.6999C137.286 43.2197 137.633 42.4994 137.633 41.5389C137.633 40.205 136.913 39.1379 135.472 38.3375C134.031 37.4838 131.79 36.5233 128.749 35.4562C125.121 34.1756 122.106 32.9217 119.705 31.6945C117.357 30.4673 115.33 28.6798 113.622 26.332C111.915 23.9843 111.088 20.9696 111.141 17.2879C111.141 13.6063 112.075 10.4849 113.942 7.92369C115.863 5.30917 118.451 3.33494 121.706 2.001C125.014 0.667064 128.722 9.54107e-05 132.831 9.54107e-05C139.767 9.54107e-05 145.263 1.60082 149.318 4.80227C153.427 8.00373 155.588 12.5124 155.801 18.3284H136.673C136.619 16.7277 136.219 15.5805 135.472 14.8868C134.725 14.1932 133.818 13.8464 132.751 13.8464C132.004 13.8464 131.39 14.1132 130.91 14.6467C130.43 15.127 130.19 15.8206 130.19 16.7277C130.19 18.0083 130.883 19.0754 132.271 19.9291C133.711 20.7295 135.979 21.7166 139.074 22.8905C142.649 24.2244 145.583 25.505 147.878 26.7322C150.225 27.9595 152.253 29.6669 153.96 31.8546C155.668 34.0422 156.522 36.7901 156.522 40.0983C156.522 43.5665 155.668 46.6879 153.96 49.4625C152.253 52.1838 149.772 54.3181 146.517 55.8654C143.262 57.4128 139.394 58.1865 134.912 58.1865ZM217.589 0.960533V57.6262H199.821V35.5362H182.934V57.6262H165.166V0.960533H182.934V21.3698H199.821V0.960533H217.589ZM245.753 0.960533V57.6262H227.985V0.960533H245.753ZM283.791 58.1865C278.456 58.1865 273.547 56.9326 269.065 54.4248C264.636 51.917 261.114 48.4487 258.5 44.0201C255.885 39.5914 254.578 34.6025 254.578 29.0533C254.578 23.5041 255.885 18.5152 258.5 14.0865C261.114 9.65781 264.636 6.21625 269.065 3.7618C273.547 1.254 278.456 9.54107e-05 283.791 9.54107e-05C289.127 9.54107e-05 294.009 1.254 298.438 3.7618C302.867 6.21625 306.362 9.65781 308.923 14.0865C311.537 18.5152 312.844 23.5041 312.844 29.0533C312.844 34.6025 311.537 39.5914 308.923 44.0201C306.362 48.4487 302.84 51.917 298.358 54.4248C293.929 56.9326 289.074 58.1865 283.791 58.1865ZM283.791 41.619C287.313 41.619 290.034 40.4985 291.955 38.2575C293.876 35.9631 294.836 32.895 294.836 29.0533C294.836 25.1582 293.876 22.0901 291.955 19.8491C290.034 17.5547 287.313 16.4075 283.791 16.4075C280.216 16.4075 277.468 17.5547 275.548 19.8491C273.627 22.0901 272.666 25.1582 272.666 29.0533C272.666 32.895 273.627 35.9631 275.548 38.2575C277.468 40.4985 280.216 41.619 283.791 41.619ZM376 57.6262H358.232L339.423 29.1333V57.6262H321.655V0.960533H339.423L358.232 29.9337V0.960533H376V57.6262Z" fill="black"/>
</svg>
