<svg width="44" height="44" viewBox="0 0 44 44" fill="none" xmlns="http://www.w3.org/2000/svg">
<path d="M22.0049 10.7166C15.762 10.7166 10.7264 15.7521 10.7264 21.9951C10.7264 28.238 15.762 33.2736 22.0049 33.2736C28.2479 33.2736 33.2834 28.238 33.2834 21.9951C33.2834 15.7521 28.2479 10.7166 22.0049 10.7166ZM22.0049 29.3276C17.9706 29.3276 14.6724 26.0393 14.6724 21.9951C14.6724 17.9509 17.9607 14.6626 22.0049 14.6626C26.0491 14.6626 29.3374 17.9509 29.3374 21.9951C29.3374 26.0393 26.0393 29.3276 22.0049 29.3276ZM36.3755 10.2552C36.3755 11.7178 35.1975 12.8859 33.7448 12.8859C32.2822 12.8859 31.1141 11.708 31.1141 10.2552C31.1141 8.80245 32.292 7.62454 33.7448 7.62454C35.1975 7.62454 36.3755 8.80245 36.3755 10.2552ZM43.8454 12.9252C43.6785 9.40123 42.8736 6.27975 40.292 3.70798C37.7202 1.1362 34.5988 0.331288 31.0748 0.154601C27.4429 -0.0515337 16.5571 -0.0515337 12.9252 0.154601C9.41104 0.321472 6.28957 1.12638 3.70798 3.69816C1.12638 6.26994 0.331288 9.39141 0.154601 12.9153C-0.0515337 16.5472 -0.0515337 27.4331 0.154601 31.065C0.321472 34.589 1.12638 37.7104 3.70798 40.2822C6.28957 42.854 9.40123 43.6589 12.9252 43.8356C16.5571 44.0417 27.4429 44.0417 31.0748 43.8356C34.5988 43.6687 37.7202 42.8638 40.292 40.2822C42.8638 37.7104 43.6687 34.589 43.8454 31.065C44.0515 27.4331 44.0515 16.5571 43.8454 12.9252ZM39.1534 34.962C38.3877 36.8859 36.9055 38.3681 34.9718 39.1436C32.0761 40.292 25.2049 40.027 22.0049 40.027C18.8049 40.027 11.9239 40.2822 9.03804 39.1436C7.11411 38.3779 5.6319 36.8957 4.85644 34.962C3.70798 32.0663 3.97301 25.1951 3.97301 21.9951C3.97301 18.7951 3.71779 11.9141 4.85644 9.02822C5.62209 7.10429 7.10429 5.62209 9.03804 4.84663C11.9337 3.69816 18.8049 3.96319 22.0049 3.96319C25.2049 3.96319 32.0859 3.70797 34.9718 4.84663C36.8957 5.61227 38.3779 7.09448 39.1534 9.02822C40.3018 11.9239 40.0368 18.7951 40.0368 21.9951C40.0368 25.1951 40.3018 32.0761 39.1534 34.962Z" fill="black"/>
</svg>
